<svg width="50" height="8" viewBox="0 0 50 8" fill="none" xmlns="http://www.w3.org/2000/svg">
<path d="M9.21875 7.38184L5.01953 7.25L4.99023 6.00977L6.67969 5.94141L6.25977 5.16016H3.03223L2.6709 5.94141L4.26758 5.95117L4.19922 7.48926L0.00976562 7.1377L0.0390625 5.91211L1.30859 5.92188L3.66211 1.91797L1.41113 2.01074V0.428711H5.57129L7.7002 5.90234L9.21875 5.83887V7.38184ZM3.33984 4.49121H5.89844L4.52148 1.92773L3.33984 4.49121ZM13.9551 3.08984L12.1045 3.19238C12.098 3.25749 12.0947 3.32422 12.0947 3.39258C12.0947 3.46094 12.0947 3.5293 12.0947 3.59766V6.39062L13.3545 6.3418L13.1934 7.3916L9.55566 7.28906L9.49219 6.49805L10.5859 6.45898L10.4932 3.34863V3.27051L9.0918 3.33887V2.30859L10.5225 2.37207C10.5583 2.02051 10.6299 1.70638 10.7373 1.42969C10.8447 1.15299 11.0042 0.920247 11.2158 0.731445C11.4274 0.542643 11.6992 0.399414 12.0312 0.301758C12.3633 0.200846 12.7702 0.150391 13.252 0.150391C13.3659 0.147135 13.4847 0.152018 13.6084 0.165039C13.7126 0.17806 13.8265 0.199219 13.9502 0.228516C14.0771 0.257812 14.1976 0.301758 14.3115 0.360352L14.1357 1.48828C14.0511 1.36458 13.9518 1.27181 13.8379 1.20996C13.724 1.14811 13.6149 1.10417 13.5107 1.07812C13.387 1.04557 13.2617 1.0293 13.1348 1.0293C12.998 1.05859 12.876 1.10091 12.7686 1.15625C12.6611 1.21159 12.5667 1.29297 12.4854 1.40039C12.404 1.50456 12.3356 1.64128 12.2803 1.81055C12.2249 1.97656 12.1826 2.18652 12.1533 2.44043L13.9551 2.50879V3.08984ZM18.3154 6.13184V6.95215L14.5557 7.43066L14.4141 6.18066L15.6641 6.1709L15.7227 3.46094L14.2041 3.34863V2.51855L17.3633 2.24023L17.2021 3.3291C17.2738 3.25423 17.3682 3.16797 17.4854 3.07031C17.6025 2.9694 17.7311 2.86849 17.8711 2.76758C18.0143 2.66341 18.1657 2.55924 18.3252 2.45508C18.488 2.35091 18.6507 2.25651 18.8135 2.17188C18.9762 2.08398 19.1357 2.00911 19.292 1.94727C19.4515 1.88216 19.598 1.83659 19.7314 1.81055L19.8633 3.43164C19.3945 3.43164 18.9909 3.47233 18.6523 3.55371C18.3171 3.63509 18.0371 3.72461 17.8125 3.82227C17.5521 3.9362 17.3324 4.06478 17.1533 4.20801L16.8115 6.15137L18.3154 6.13184ZM24.2725 6.1416L24.1113 7.3916L20.4688 7.28906L20.3125 6.40039L21.792 6.30762L21.7822 3.51953L20.2588 3.4707V2.68945L23.3301 2.48926L22.959 6.22949L24.2725 6.1416ZM23.3301 1.3418C23.3301 1.41992 23.3057 1.49479 23.2568 1.56641C23.2113 1.63477 23.1478 1.69499 23.0664 1.74707C22.985 1.79915 22.889 1.84147 22.7783 1.87402C22.6709 1.90332 22.5553 1.91797 22.4316 1.91797C22.3047 1.91797 22.1859 1.90332 22.0752 1.87402C21.9678 1.84147 21.8734 1.79915 21.792 1.74707C21.7106 1.69499 21.6455 1.63477 21.5967 1.56641C21.5511 1.49479 21.5283 1.41992 21.5283 1.3418C21.5283 1.26042 21.5511 1.18392 21.5967 1.1123C21.6455 1.03743 21.7106 0.973958 21.792 0.921875C21.8734 0.869792 21.9678 0.829102 22.0752 0.799805C22.1859 0.767253 22.3047 0.750977 22.4316 0.750977C22.5553 0.750977 22.6709 0.767253 22.7783 0.799805C22.889 0.829102 22.985 0.869792 23.0664 0.921875C23.1478 0.973958 23.2113 1.03743 23.2568 1.1123C23.3057 1.18392 23.3301 1.26042 23.3301 1.3418ZM31.2354 7.31836H29.0576L27.1045 5.03809L26.8848 5.17969L26.8164 6.40039L27.6758 6.37109V7.31836H24.4043V6.46875L25.3076 6.43945L25.3955 1.19043L24.3457 1.1416V0.291992L27.1875 0.208984L26.9482 4.15918L28.7646 2.64062L30.8447 2.40137L30.708 3.54883H29.3945L28.3154 4.26172L30.2686 6.37109L31.2354 6.2002V7.31836ZM37.7148 6.68848L37.4658 7.5918L35.0391 7.41113C35.0456 7.3623 35.0537 7.30859 35.0635 7.25C35.0732 7.19141 35.083 7.13607 35.0928 7.08398C35.1058 7.02539 35.1172 6.9668 35.127 6.9082C34.8438 7.06445 34.5573 7.17513 34.2676 7.24023C33.9779 7.30534 33.6947 7.33789 33.418 7.33789C33.2161 7.33789 33.0062 7.31999 32.7881 7.28418C32.57 7.24837 32.3698 7.18652 32.1875 7.09863C32.0085 7.00749 31.8604 6.88867 31.7432 6.74219C31.626 6.59245 31.5674 6.40527 31.5674 6.18066C31.5674 5.94303 31.6211 5.73796 31.7285 5.56543C31.8359 5.3929 31.9775 5.24642 32.1533 5.12598C32.3291 5.00228 32.5277 4.90299 32.749 4.82812C32.9736 4.75326 33.1999 4.69466 33.4277 4.65234C33.6589 4.60677 33.8835 4.57747 34.1016 4.56445C34.3197 4.54818 34.5117 4.54004 34.6777 4.54004C34.8535 4.54004 35.0114 4.54492 35.1514 4.55469C35.2913 4.5612 35.4167 4.57259 35.5273 4.58887C35.5664 4.35124 35.5859 4.125 35.5859 3.91016C35.5859 3.75391 35.5648 3.6123 35.5225 3.48535C35.4834 3.3584 35.4134 3.2526 35.3125 3.16797C35.2148 3.08333 35.083 3.01986 34.917 2.97754C34.7542 2.93522 34.5508 2.91895 34.3066 2.92871C34.1439 2.94499 33.9941 2.99056 33.8574 3.06543C33.7988 3.09798 33.7386 3.13867 33.6768 3.1875C33.6182 3.23633 33.5612 3.29492 33.5059 3.36328C33.4538 3.43164 33.4066 3.51302 33.3643 3.60742C33.3219 3.69857 33.2894 3.80273 33.2666 3.91992L31.6895 3.99805C31.7122 3.77344 31.7692 3.57487 31.8604 3.40234C31.9515 3.22656 32.0622 3.0752 32.1924 2.94824C32.3258 2.81803 32.4723 2.70736 32.6318 2.61621C32.7913 2.52507 32.9525 2.44857 33.1152 2.38672C33.4993 2.24674 33.9274 2.16048 34.3994 2.12793C34.8226 2.12142 35.1807 2.16211 35.4736 2.25C35.7699 2.33464 36.014 2.4502 36.2061 2.59668C36.3981 2.73991 36.5479 2.90267 36.6553 3.08496C36.7627 3.26725 36.8408 3.44954 36.8896 3.63184C36.9385 3.81087 36.9661 3.98177 36.9727 4.14453C36.9792 4.30404 36.9808 4.43587 36.9775 4.54004C36.9678 4.66699 36.945 4.8265 36.9092 5.01855C36.8799 5.18457 36.8359 5.3929 36.7773 5.64355C36.722 5.89421 36.6455 6.19368 36.5479 6.54199L37.7148 6.68848ZM35.415 5.24805C35.3402 5.24154 35.2588 5.23665 35.1709 5.2334C35.083 5.23014 34.9919 5.22852 34.8975 5.22852C34.8161 5.22852 34.7152 5.23177 34.5947 5.23828C34.4775 5.24479 34.3538 5.25781 34.2236 5.27734C34.0934 5.29362 33.9632 5.31803 33.833 5.35059C33.7028 5.38314 33.5856 5.42546 33.4814 5.47754C33.3805 5.52962 33.2975 5.5931 33.2324 5.66797C33.1673 5.74284 33.1348 5.83073 33.1348 5.93164C33.1348 6.00977 33.1576 6.08464 33.2031 6.15625C33.252 6.22461 33.3171 6.2832 33.3984 6.33203C33.4798 6.38086 33.5742 6.41667 33.6816 6.43945C33.7923 6.45898 33.9079 6.45898 34.0283 6.43945C34.2725 6.39388 34.502 6.33854 34.7168 6.27344C34.9349 6.20508 35.1221 6.13997 35.2783 6.07812C35.3044 5.94141 35.3288 5.80306 35.3516 5.66309C35.3743 5.52311 35.3955 5.38477 35.415 5.24805ZM41.958 6.13184V6.95215L38.1982 7.43066L38.0566 6.18066L39.3066 6.1709L39.3652 3.46094L37.8467 3.34863V2.51855L41.0059 2.24023L40.8447 3.3291C40.9163 3.25423 41.0107 3.16797 41.1279 3.07031C41.2451 2.9694 41.3737 2.86849 41.5137 2.76758C41.6569 2.66341 41.8083 2.55924 41.9678 2.45508C42.1305 2.35091 42.2933 2.25651 42.4561 2.17188C42.6188 2.08398 42.7783 2.00911 42.9346 1.94727C43.0941 1.88216 43.2406 1.83659 43.374 1.81055L43.5059 3.43164C43.0371 3.43164 42.6335 3.47233 42.2949 3.55371C41.9596 3.63509 41.6797 3.72461 41.4551 3.82227C41.1947 3.9362 40.9749 4.06478 40.7959 4.20801L40.4541 6.15137L41.958 6.13184ZM46.084 5.37012C46.084 5.5459 46.1084 5.69889 46.1572 5.8291C46.2093 5.95931 46.2793 6.06836 46.3672 6.15625C46.4551 6.24089 46.5576 6.30436 46.6748 6.34668C46.7952 6.389 46.9238 6.41016 47.0605 6.41016C47.1973 6.41016 47.3405 6.389 47.4902 6.34668C47.64 6.30436 47.7881 6.24089 47.9346 6.15625C48.0811 6.07161 48.2243 5.96582 48.3643 5.83887C48.5042 5.71191 48.6344 5.56543 48.7549 5.39941C48.7874 5.5166 48.8216 5.64518 48.8574 5.78516C48.89 5.9056 48.9258 6.04557 48.9648 6.20508C49.0072 6.36133 49.0527 6.52897 49.1016 6.70801C48.9062 6.85449 48.7142 6.97493 48.5254 7.06934C48.3366 7.16374 48.1527 7.23861 47.9736 7.29395C47.7979 7.34928 47.6286 7.38672 47.4658 7.40625C47.3031 7.42904 47.1517 7.44043 47.0117 7.44043C46.6471 7.44043 46.3379 7.3916 46.084 7.29395C45.8333 7.19954 45.6234 7.06934 45.4541 6.90332C45.2881 6.73405 45.1579 6.53711 45.0635 6.3125C44.9723 6.08464 44.904 5.84049 44.8584 5.58008C44.8128 5.31641 44.7852 5.04297 44.7754 4.75977C44.7656 4.47331 44.7607 4.1901 44.7607 3.91016C44.7607 3.83854 44.7624 3.75716 44.7656 3.66602C44.7689 3.57487 44.7738 3.47884 44.7803 3.37793L43.6133 3.41211L43.7109 2.3916L44.8926 2.29883C44.9251 2.02214 44.9593 1.75195 44.9951 1.48828C45.0342 1.22461 45.0684 0.986979 45.0977 0.775391C45.1335 0.527995 45.1676 0.29362 45.2002 0.0722656L46.7822 0.189453C46.7432 0.365234 46.7041 0.557292 46.665 0.765625C46.6292 0.944661 46.5885 1.15462 46.543 1.39551C46.5007 1.63314 46.4567 1.89193 46.4111 2.17188L48.5303 2.00098L48.501 3.26074L46.2402 3.3291C46.1914 3.69368 46.1523 4.05013 46.123 4.39844C46.097 4.74349 46.084 5.06738 46.084 5.37012Z" fill="#006150"/>
</svg>
