<svg width="58" height="52" viewBox="0 0 58 52" fill="none" xmlns="http://www.w3.org/2000/svg">
<path id="Vector" d="M17.4 41.6111C14.21 41.6111 11.629 43.9486 11.629 46.8055C11.629 49.6625 14.21 52 17.4 52C20.59 52 23.2 49.6625 23.2 46.8055C23.2 43.9486 20.59 41.6111 17.4 41.6111ZM0 0.0555496V5.24999H5.8L16.24 24.9629L12.325 31.3261C11.861 32.0533 11.6 32.9104 11.6 33.8194C11.6 36.6764 14.21 39.0139 17.4 39.0139H52.2V33.8194H18.618C18.212 33.8194 17.893 33.5337 17.893 33.1701L17.98 32.8585L20.59 28.625H42.195C44.37 28.625 46.284 27.5601 47.27 25.9499L57.652 9.09388C57.884 8.73027 58 8.28874 58 7.84722C58 6.41874 56.695 5.24999 55.1 5.24999H12.209L9.483 0.0555496H0ZM46.4 41.6111C43.21 41.6111 40.629 43.9486 40.629 46.8055C40.629 49.6625 43.21 52 46.4 52C49.59 52 52.2 49.6625 52.2 46.8055C52.2 43.9486 49.59 41.6111 46.4 41.6111Z" fill="#006150"/>
</svg>
