<svg width="28" height="27" viewBox="0 0 28 27" fill="none" xmlns="http://www.w3.org/2000/svg">
<g id="Group 43">
<ellipse id="Ellipse 777" cx="14" cy="13.5" rx="14" ry="13.5" fill="#006150"/>
<g id="LOVE">
<path id="Shape" fill-rule="evenodd" clip-rule="evenodd" d="M17.5461 7.21851C16.3031 7.21851 15.1101 7.85584 14.3314 8.863C13.5528 7.85584 12.3598 7.21851 11.1168 7.21851C8.91651 7.21851 7.18774 9.12265 7.18774 11.5461C7.18774 14.5204 9.61659 16.9438 13.2956 20.6262L14.3314 21.657L15.3673 20.6184C19.0462 16.9438 21.4751 14.5204 21.4751 11.5461C21.4751 9.12265 19.7463 7.21851 17.5461 7.21851ZM14.4028 19.4537L14.3314 19.5324L14.2599 19.4537C10.8595 16.0625 8.61643 13.82 8.61643 11.546C8.61643 9.97233 9.68798 8.79207 11.1167 8.79207C12.2168 8.79207 13.2884 9.57104 13.667 10.649H15.0029C15.3743 9.57104 16.4459 8.79207 17.546 8.79207C18.9748 8.79207 20.0463 9.97233 20.0463 11.546C20.0463 13.82 17.8032 16.0625 14.4028 19.4537Z" fill="white"/>
</g>
</g>
</svg>
