<svg width="23" height="12" viewBox="0 0 23 12" fill="none" xmlns="http://www.w3.org/2000/svg">
<g id="LOGO 1">
<path id="Ellipse 1" d="M11.9756 8.30153C11.9756 12.195 5.72392 11.5466 2.47934 11.5466C-0.765226 11.5466 16.409 13.4259 16.409 9.53243C16.409 5.639 19.0392 2.48276 22.2838 2.48276C25.5283 2.48276 11.9756 4.40811 11.9756 8.30153Z" fill="#006150"/>
<path id="Ellipse 2" d="M11.1989 7.06017C11.1989 10.9536 4.94715 10.3053 1.70258 10.3053C-1.54199 10.3053 15.6322 12.1845 15.6322 8.29107C15.6322 4.39764 18.2624 1.24139 21.507 1.24139C24.7516 1.24139 11.1989 3.16674 11.1989 7.06017Z" fill="#006150"/>
<path id="Ellipse 3" d="M9.90421 5.81878C9.90421 9.7122 3.6525 9.06386 0.407934 9.06386C-2.83664 9.06386 14.3375 10.9431 14.3375 7.04967C14.3375 3.15625 16.9678 0 20.2124 0C23.4569 0 9.90421 1.92535 9.90421 5.81878Z" fill="#006150"/>
</g>
</svg>
