<svg width="34" height="36" viewBox="0 0 34 36" fill="none" xmlns="http://www.w3.org/2000/svg">
<path id="Vector" d="M24.2996 22.6415H22.7639L22.2196 22.0858C24.1246 19.7393 25.2716 16.693 25.2716 13.3791C25.2716 5.98971 19.6146 0 12.6358 0C5.65695 0 0 5.98971 0 13.3791C0 20.7684 5.65695 26.7581 12.6358 26.7581C15.7656 26.7581 18.6427 25.5437 20.8588 23.5266L21.3836 24.1029V25.729L31.1035 36L34 32.9331L24.2996 22.6415ZM12.6358 22.6415C7.79531 22.6415 3.88794 18.5043 3.88794 13.3791C3.88794 8.25386 7.79531 4.11664 12.6358 4.11664C17.4763 4.11664 21.3836 8.25386 21.3836 13.3791C21.3836 18.5043 17.4763 22.6415 12.6358 22.6415Z" fill="#006150" fill-opacity="0.7"/>
</svg>
