<svg width="128" height="25" viewBox="0 0 128 25" fill="none" xmlns="http://www.w3.org/2000/svg">
<g id="stars">
<path id="Star 1" d="M11.3203 6.89695C12.1523 4.5765 15.4339 4.5765 16.2659 6.89695L16.3008 6.99434C16.6541 7.97984 17.5883 8.63729 18.6352 8.63729H19.0553C21.3914 8.63729 22.301 11.6727 20.3499 12.9574C19.4426 13.5548 19.0658 14.7062 19.4324 15.7288C20.2188 17.9223 17.7764 19.8973 15.8301 18.6158L15.2538 18.2363C14.3674 17.6527 13.2188 17.6527 12.3325 18.2363L11.7561 18.6158C9.80984 19.8973 7.36739 17.9223 8.15384 15.7288C8.52045 14.7062 8.14362 13.5548 7.23634 12.9574C5.28524 11.6727 6.19482 8.63729 8.53088 8.63729H8.951C9.99793 8.63729 10.9321 7.97983 11.2854 6.99434L11.3203 6.89695Z" fill="#006150"/>
<path id="Star 2" d="M38.9066 6.89695C39.7385 4.5765 43.0202 4.5765 43.8521 6.89695L43.887 6.99434C44.2404 7.97984 45.1745 8.63729 46.2214 8.63729H46.6416C48.9776 8.63729 49.8872 11.6727 47.9361 12.9574C47.0288 13.5548 46.652 14.7062 47.0186 15.7288C47.8051 17.9223 45.3626 19.8973 43.4164 18.6158L42.84 18.2363C41.9537 17.6527 40.805 17.6527 39.9187 18.2363L39.3423 18.6158C37.3961 19.8973 34.9536 17.9223 35.7401 15.7288C36.1067 14.7062 35.7299 13.5548 34.8226 12.9574C32.8715 11.6727 33.7811 8.63729 36.1171 8.63729H36.5372C37.5842 8.63729 38.5183 7.97983 38.8717 6.99434L38.9066 6.89695Z" fill="#006150"/>
<path id="Star 3" d="M63.1824 6.89695C64.0143 4.5765 67.296 4.5765 68.1279 6.89695L68.1629 6.99434C68.5162 7.97984 69.4503 8.63729 70.4973 8.63729H70.9174C73.2534 8.63729 74.163 11.6727 72.2119 12.9574C71.3046 13.5548 70.9278 14.7062 71.2944 15.7288C72.0809 17.9223 69.6384 19.8973 67.6922 18.6158L67.1158 18.2363C66.2295 17.6527 65.0808 17.6527 64.1945 18.2363L63.6181 18.6158C61.6719 19.8973 59.2294 17.9223 60.0159 15.7288C60.3825 14.7062 60.0057 13.5548 59.0984 12.9574C57.1473 11.6727 58.0569 8.63729 60.3929 8.63729H60.8131C61.86 8.63729 62.7941 7.97983 63.1475 6.99434L63.1824 6.89695Z" fill="#006150"/>
<path id="Star 4" d="M87.4583 6.89695C88.2902 4.5765 91.5719 4.5765 92.4038 6.89695L92.4387 6.99434C92.7921 7.97984 93.7262 8.63729 94.7731 8.63729H95.1933C97.5293 8.63729 98.4389 11.6727 96.4878 12.9574C95.5805 13.5548 95.2037 14.7062 95.5703 15.7288C96.3568 17.9223 93.9143 19.8973 91.9681 18.6158L91.3917 18.2363C90.5054 17.6527 89.3567 17.6527 88.4704 18.2363L87.894 18.6158C85.9478 19.8973 83.5053 17.9223 84.2918 15.7288C84.6584 14.7062 84.2816 13.5548 83.3743 12.9574C81.4232 11.6727 82.3328 8.63729 84.6688 8.63729H85.0889C86.1359 8.63729 87.07 7.97983 87.4233 6.99434L87.4583 6.89695Z" fill="#006150"/>
<path id="Star 5" d="M111.734 6.89695C112.566 4.5765 115.848 4.5765 116.68 6.89695L116.715 6.99434C117.068 7.97984 118.002 8.63729 119.049 8.63729H119.469C121.805 8.63729 122.715 11.6727 120.764 12.9574C119.856 13.5548 119.48 14.7062 119.846 15.7288C120.633 17.9223 118.19 19.8973 116.244 18.6158L115.668 18.2363C114.781 17.6527 113.633 17.6527 112.746 18.2363L112.17 18.6158C110.224 19.8973 107.781 17.9223 108.568 15.7288C108.934 14.7062 108.557 13.5548 107.65 12.9574C105.699 11.6727 106.609 8.63729 108.945 8.63729H109.365C110.412 8.63729 111.346 7.97983 111.699 6.99434L111.734 6.89695Z" fill="#D9D9D9"/>
</g>
</svg>
